<?xml version="1.0" encoding="UTF-8"?>
<svg width="49px" height="49px" viewBox="0 0 49 49" version="1.1" xmlns="http://www.w3.org/2000/svg" xmlns:xlink="http://www.w3.org/1999/xlink">
    <!-- Generator: Sketch 57.1 (83088) - https://sketch.com -->
    <title>jazII</title>
    <desc>Created with Sketch.</desc>
    <g id="Page-2" stroke="none" stroke-width="1" fill="none" fill-rule="evenodd">
        <g id="Decoration" transform="translate(-226.000000, -253.000000)">
            <g id="jazII" transform="translate(228.000000, 255.000000)">
                <circle id="Oval" stroke="#333333" stroke-width="4" cx="22.5" cy="22.5" r="22.5"></circle>
                <path d="M22.55,5.6 C25.8463096,5.6 27.95,7.95 27.95,9.9 C27.95,10.179158 27.95,11.979865 28.0366078,17.682349 C28.3175971,17.3805966 28.6559331,17.0865941 29.05,16.8 C29.8150304,16.2436143 31,15.95 32.35,16.1 C33.7,16.25 35.1,17.25 35.1,19.15 C35.1,20.2862056 34.7960336,21.0469233 34.2522559,21.4856157 C34.3472792,21.7854416 34.4,22.120256 34.4,22.4889623 C34.4,24.3889623 33.55,25.2389623 32.15,25.2889623 C30.75,25.3389623 30.05,24.5389623 29.75,24.0389623 C29.55,23.7056289 29.45,23.3222956 29.45,22.8889623 C29.45,22.0881494 30.1768014,21.4389623 30.95,21.4389623 C31.0092648,21.4389623 31.0676695,21.4427763 31.1249977,21.4501802 C30.800398,21.2099535 30.5848118,20.9246864 30.45,20.7 C30.330102,20.5001701 30.2461429,20.2823707 30.1981225,20.046602 C29.4487486,20.1605597 28.8242365,20.4484146 28.35,20.8389623 C28.2602915,20.9128399 28.1736528,20.9909363 28.0900838,21.0732515 C28.1495528,24.5720641 28.232547,29.1046545 28.3500587,34.95 C28.4032376,37.5952655 25.65,38.6 24.25,39.25 C23.5356953,39.5816415 23.4,39.05 23.580153,38.9098479 C24.0505054,38.5439317 24.2444972,37.87997 24.2431513,37.6006788 C24.1556604,19.8070051 24.1082826,9.97724952 24.1009939,8.1114122 L24.1,7.8 C24.1,6.85 23.45,6.3 22.5,6.3 C21.55,6.3 20.9,6.85 20.9,7.8 C20.9,8.25595438 20.9159103,18.1944389 20.9477309,37.6154536 C20.9481843,37.8922111 21.1659292,38.5308683 21.6698473,38.9132846 C21.85,39.05 21.75,39.6 20.9,39.25 C19.4732323,38.6625074 17,37.6 17,34.95 L17,34.95 L17,22.005 L16.9525078,21.9234539 C16.6975182,21.5119374 16.3966823,21.1634276 16.05,20.8779246 C15.8770181,20.7354689 15.6840422,20.6066764 15.4721945,20.4949186 C15.4378889,20.5806845 15.3966667,20.6611845 15.35,20.7389623 C15.1657051,21.0461204 14.8304565,21.4664939 14.274704,21.7334742 C14.6710959,21.9939522 14.95,22.4318458 14.95,22.9279246 C14.95,23.3612579 14.85,23.7445912 14.65,24.0779246 C14.35,24.5779246 13.65,25.3779246 12.25,25.3279246 C10.85,25.2779246 10,24.4279246 10,22.5279246 C10,21.594231 10.3380879,20.8778796 10.8421876,20.3729368 C10.7485088,20.0368275 10.7,19.6428562 10.7,19.1889623 C10.7,17.2889623 12.1,16.2889623 13.45,16.1389623 C14.8,15.9889623 15.9849696,16.2825766 16.75,16.8389623 C16.8361073,16.9015858 16.9195537,16.964563 17.0003391,17.0278939 L17,9.9 C17,7.95 19.2536904,5.6 22.55,5.6 Z M11.1395921,21.064873 C10.8627333,21.4345258 10.6873387,21.9079534 10.6813412,22.5142828 C10.6626824,24.4006411 11.9,24.8279246 12.5,24.8279246 C13.1,24.8279246 13.7979736,24.3704356 13.9,24.3279246 C14.0020264,24.2854136 13.9,24.2779246 13.35,24.3279246 C12.5768014,24.3279246 12.05,23.7287374 12.05,22.9279246 C12.05,22.5403188 12.1968413,22.1882346 12.4360505,21.9280907 C11.8786691,21.8131825 11.4376295,21.5324387 11.1395921,21.064873 Z M33.6362171,21.8154284 L33.594538,21.8306185 C33.3681213,21.9011834 33.1192308,21.9403846 32.85,21.95 C32.4954376,21.9626629 32.1857733,21.9208068 31.9161337,21.8431124 C32.1839464,22.1047651 32.35,22.4767792 32.35,22.8889623 C32.35,23.6897752 31.8231986,24.2889623 31.05,24.2889623 C30.5,24.2389623 30.3979736,24.2464513 30.5,24.2889623 C30.6020264,24.3314733 31.3,24.7889623 31.9,24.7889623 C32.5,24.7889623 33.7373176,24.3616789 33.7186588,22.4753206 C33.7162811,22.2349414 33.6872789,22.0154508 33.6362171,21.8154284 Z M12.8254559,20.0901348 C12.4356287,20.1640889 12.0304157,20.3115404 11.6781177,20.5534419 C12.078248,21.2882707 12.7887955,21.4889623 13.2,21.4889623 C13.8,21.4889623 14.4979736,21.0314733 14.6,20.9889623 C14.7020264,20.9464513 14.6,20.9389623 14.05,20.9889623 C13.4491938,20.9889623 12.9971601,20.6271785 12.8254559,20.0901348 Z M32.7218823,20.5144796 L32.6486563,20.5933553 C32.4231509,20.817308 32.1138582,20.95 31.75,20.95 C31.2,20.9 31.0979736,20.907489 31.2,20.95 C31.3020264,20.992511 32,21.45 32.6,21.45 C32.814321,21.45 33.1099593,21.3954816 33.4006252,21.2394195 C33.2257196,20.9356271 32.9890126,20.6979016 32.7218823,20.5144796 Z M14.15,16.6889623 C13.0582558,16.6889623 11.4,17.2889623 11.3813412,19.1753206 C11.378626,19.4498202 11.4025068,19.6934231 11.4471496,19.9093087 C11.8519,19.6700113 12.3036825,19.5275154 12.75,19.4779246 L12.755,19.477 L12.7564088,19.4493176 C12.8242479,18.7140208 13.4222836,18.1389623 14.15,18.1389623 C14.9231986,18.1389623 15.65,18.7881494 15.65,19.5889623 C15.65,19.7033141 15.6430363,19.8141841 15.6291088,19.9215722 C15.7796116,19.997485 15.9207949,20.0839572 16.05,20.1779246 C16.4152965,20.4435948 16.7327028,20.7156311 17.0022188,20.9940334 L17.0019161,17.7653936 C16.9208213,17.6859623 16.8368493,17.6104852 16.75,17.5389623 C16.1259719,17.0250568 15.2417442,16.6889623 14.15,16.6889623 Z M31.65,16.65 C30.5582558,16.65 29.6740281,16.9860945 29.05,17.5 C28.7033177,17.7855031 28.4024818,18.1340128 28.1474922,18.5455293 L28.0524813,18.7088757 C28.0605998,19.2250799 28.0693614,19.7696419 28.0788172,20.3439619 C28.1654902,20.2758695 28.2561651,20.2072058 28.35,20.1389623 C28.8152067,19.8006301 29.4356955,19.5594636 30.1541488,19.4561261 C30.2074836,18.6989195 30.9073394,18.1 31.65,18.1 C32.4231986,18.1 33.05,18.7491871 33.05,19.55 C33.05,19.6737919 33.0374116,19.7927657 33.0132707,19.905453 C33.3721638,20.1257355 33.6915729,20.4237435 33.9330413,20.7995557 C34.219394,20.4467623 34.4263732,19.9162657 34.4186588,19.1363583 C34.4,17.25 32.7417442,16.65 31.65,16.65 Z" id="Combined-Shape" fill="#333333"></path>
            </g>
        </g>
    </g>
</svg>